<mxfile host="app.diagrams.net" modified="2024-02-24T07:38:05.676Z" agent="Mozilla/5.0 (Windows NT 10.0; Win64; x64) AppleWebKit/537.36 (KHTML, like Gecko) Chrome/109.0.0.0 Safari/537.36" etag="HqhREJvpMc9xWGIU9rHs" version="23.1.6" type="github">
  <diagram id="gV0UPWMApa0LC6vez4Ip" name="Page-1">
    <mxGraphModel dx="825" dy="418" grid="1" gridSize="10" guides="1" tooltips="1" connect="1" arrows="1" fold="1" page="1" pageScale="1" pageWidth="827" pageHeight="1169" math="0" shadow="0">
      <root>
        <mxCell id="0" />
        <mxCell id="1" parent="0" />
        <mxCell id="Pn8fTQrSeP5vRvdxLiqo-9" style="edgeStyle=orthogonalEdgeStyle;rounded=0;orthogonalLoop=1;jettySize=auto;html=1;entryX=0.414;entryY=0;entryDx=0;entryDy=0;entryPerimeter=0;" parent="1" source="Pn8fTQrSeP5vRvdxLiqo-1" target="Pn8fTQrSeP5vRvdxLiqo-4" edge="1">
          <mxGeometry relative="1" as="geometry">
            <mxPoint x="204" y="210" as="targetPoint" />
            <Array as="points">
              <mxPoint x="256" y="175" />
            </Array>
          </mxGeometry>
        </mxCell>
        <mxCell id="Pn8fTQrSeP5vRvdxLiqo-1" value="Size of the pizza" style="rhombus;whiteSpace=wrap;html=1;" parent="1" vertex="1">
          <mxGeometry x="307" y="130" width="160" height="90" as="geometry" />
        </mxCell>
        <mxCell id="Pn8fTQrSeP5vRvdxLiqo-3" style="edgeStyle=orthogonalEdgeStyle;rounded=0;orthogonalLoop=1;jettySize=auto;html=1;" parent="1" source="Pn8fTQrSeP5vRvdxLiqo-2" target="Pn8fTQrSeP5vRvdxLiqo-1" edge="1">
          <mxGeometry relative="1" as="geometry" />
        </mxCell>
        <mxCell id="Pn8fTQrSeP5vRvdxLiqo-2" value="The client wants a pizza" style="rounded=1;whiteSpace=wrap;html=1;fillColor=#d5e8d4;strokeColor=#82b366;" parent="1" vertex="1">
          <mxGeometry x="327" y="20" width="120" height="60" as="geometry" />
        </mxCell>
        <mxCell id="Pn8fTQrSeP5vRvdxLiqo-4" value="Small" style="rounded=1;whiteSpace=wrap;html=1;" parent="1" vertex="1">
          <mxGeometry x="220" y="260" width="87" height="40" as="geometry" />
        </mxCell>
        <mxCell id="87rwdMVCoe62URorR9CH-39" value="" style="edgeStyle=none;curved=1;rounded=0;orthogonalLoop=1;jettySize=auto;html=1;fontSize=12;startSize=8;endSize=8;" edge="1" parent="1">
          <mxGeometry relative="1" as="geometry">
            <mxPoint x="517.08" y="300" as="sourcePoint" />
            <mxPoint x="517.08" y="460" as="targetPoint" />
          </mxGeometry>
        </mxCell>
        <mxCell id="Pn8fTQrSeP5vRvdxLiqo-5" value="Large" style="rounded=1;whiteSpace=wrap;html=1;" parent="1" vertex="1">
          <mxGeometry x="474" y="260" width="87" height="40" as="geometry" />
        </mxCell>
        <mxCell id="Pn8fTQrSeP5vRvdxLiqo-10" value="elif" style="text;html=1;align=center;verticalAlign=middle;resizable=0;points=[];autosize=1;" parent="1" vertex="1">
          <mxGeometry x="272" y="154" width="40" height="30" as="geometry" />
        </mxCell>
        <mxCell id="Pn8fTQrSeP5vRvdxLiqo-11" value="elif" style="text;html=1;align=center;verticalAlign=middle;resizable=0;points=[];autosize=1;" parent="1" vertex="1">
          <mxGeometry x="474" y="154" width="40" height="30" as="geometry" />
        </mxCell>
        <mxCell id="87rwdMVCoe62URorR9CH-17" value="" style="edgeStyle=segmentEdgeStyle;endArrow=classic;html=1;curved=0;rounded=0;endSize=8;startSize=8;sourcePerimeterSpacing=0;targetPerimeterSpacing=0;fontSize=12;exitX=1;exitY=0.5;exitDx=0;exitDy=0;entryX=0.5;entryY=0;entryDx=0;entryDy=0;" edge="1" parent="1" source="Pn8fTQrSeP5vRvdxLiqo-1" target="Pn8fTQrSeP5vRvdxLiqo-5">
          <mxGeometry width="140" relative="1" as="geometry">
            <mxPoint x="470" y="180" as="sourcePoint" />
            <mxPoint x="530" y="230" as="targetPoint" />
            <Array as="points">
              <mxPoint x="518" y="175" />
              <mxPoint x="518" y="230" />
            </Array>
          </mxGeometry>
        </mxCell>
        <mxCell id="87rwdMVCoe62URorR9CH-18" value="" style="edgeStyle=none;orthogonalLoop=1;jettySize=auto;html=1;rounded=0;fontSize=12;startSize=8;endSize=8;" edge="1" parent="1" source="Pn8fTQrSeP5vRvdxLiqo-1">
          <mxGeometry width="140" relative="1" as="geometry">
            <mxPoint x="350" y="240" as="sourcePoint" />
            <mxPoint x="387" y="330" as="targetPoint" />
            <Array as="points" />
          </mxGeometry>
        </mxCell>
        <mxCell id="87rwdMVCoe62URorR9CH-41" value="" style="edgeStyle=none;curved=1;rounded=0;orthogonalLoop=1;jettySize=auto;html=1;fontSize=12;startSize=8;endSize=8;" edge="1" parent="1" source="87rwdMVCoe62URorR9CH-19" target="87rwdMVCoe62URorR9CH-40">
          <mxGeometry relative="1" as="geometry" />
        </mxCell>
        <mxCell id="87rwdMVCoe62URorR9CH-19" value="Medium" style="rounded=1;whiteSpace=wrap;html=1;" vertex="1" parent="1">
          <mxGeometry x="327" y="330" width="120" height="50" as="geometry" />
        </mxCell>
        <mxCell id="87rwdMVCoe62URorR9CH-20" style="edgeStyle=none;curved=1;rounded=0;orthogonalLoop=1;jettySize=auto;html=1;exitX=0.5;exitY=1;exitDx=0;exitDy=0;fontSize=12;startSize=8;endSize=8;" edge="1" parent="1" source="87rwdMVCoe62URorR9CH-19" target="87rwdMVCoe62URorR9CH-19">
          <mxGeometry relative="1" as="geometry" />
        </mxCell>
        <mxCell id="87rwdMVCoe62URorR9CH-21" value="" style="edgeStyle=none;orthogonalLoop=1;jettySize=auto;html=1;rounded=0;fontSize=12;startSize=8;endSize=8;exitX=0.5;exitY=1;exitDx=0;exitDy=0;" edge="1" parent="1" source="Pn8fTQrSeP5vRvdxLiqo-4">
          <mxGeometry width="140" relative="1" as="geometry">
            <mxPoint x="350" y="410" as="sourcePoint" />
            <mxPoint x="264" y="400" as="targetPoint" />
            <Array as="points" />
          </mxGeometry>
        </mxCell>
        <mxCell id="87rwdMVCoe62URorR9CH-28" value="Bill&lt;br&gt;$15" style="whiteSpace=wrap;html=1;" vertex="1" parent="1">
          <mxGeometry x="207" y="400" width="120" height="60" as="geometry" />
        </mxCell>
        <mxCell id="87rwdMVCoe62URorR9CH-38" value="Bill&lt;br&gt;$25" style="whiteSpace=wrap;html=1;rounded=1;arcSize=0;" vertex="1" parent="1">
          <mxGeometry x="468.75" y="460" width="97.5" height="60" as="geometry" />
        </mxCell>
        <mxCell id="87rwdMVCoe62URorR9CH-40" value="Bill&lt;br&gt;$20" style="whiteSpace=wrap;html=1;rounded=1;arcSize=0;" vertex="1" parent="1">
          <mxGeometry x="338.5" y="430" width="97" height="60" as="geometry" />
        </mxCell>
      </root>
    </mxGraphModel>
  </diagram>
</mxfile>
